<mxfile host="app.diagrams.net" modified="2022-03-17T10:44:29.249Z" agent="5.0 (Macintosh; Intel Mac OS X 10_15_7) AppleWebKit/537.36 (KHTML, like Gecko) Chrome/99.0.4844.74 Safari/537.36" etag="CsQ3QmJ3FCf-fpjiruah" version="16.6.4" type="github">
  <diagram id="Mp3mM4tGY0VjmupUOANH" name="Page-1">
    <mxGraphModel dx="946" dy="532" grid="1" gridSize="10" guides="1" tooltips="1" connect="1" arrows="1" fold="1" page="1" pageScale="1" pageWidth="827" pageHeight="1169" math="0" shadow="0">
      <root>
        <mxCell id="0" />
        <mxCell id="1" parent="0" />
        <mxCell id="Lf05gTn_u_sPebguCA0k-3" value="" style="edgeStyle=orthogonalEdgeStyle;rounded=0;orthogonalLoop=1;jettySize=auto;html=1;" edge="1" parent="1" source="Lf05gTn_u_sPebguCA0k-1" target="Lf05gTn_u_sPebguCA0k-2">
          <mxGeometry relative="1" as="geometry" />
        </mxCell>
        <mxCell id="Lf05gTn_u_sPebguCA0k-1" value="Adventure" style="rounded=0;whiteSpace=wrap;html=1;" vertex="1" parent="1">
          <mxGeometry x="354" y="130" width="120" height="60" as="geometry" />
        </mxCell>
        <mxCell id="Lf05gTn_u_sPebguCA0k-5" value="" style="edgeStyle=orthogonalEdgeStyle;rounded=0;orthogonalLoop=1;jettySize=auto;html=1;" edge="1" parent="1" source="Lf05gTn_u_sPebguCA0k-2" target="Lf05gTn_u_sPebguCA0k-4">
          <mxGeometry relative="1" as="geometry" />
        </mxCell>
        <mxCell id="Lf05gTn_u_sPebguCA0k-7" value="" style="edgeStyle=orthogonalEdgeStyle;rounded=0;orthogonalLoop=1;jettySize=auto;html=1;" edge="1" parent="1" source="Lf05gTn_u_sPebguCA0k-2" target="Lf05gTn_u_sPebguCA0k-6">
          <mxGeometry relative="1" as="geometry" />
        </mxCell>
        <mxCell id="Lf05gTn_u_sPebguCA0k-2" value="Main Menu" style="whiteSpace=wrap;html=1;rounded=0;" vertex="1" parent="1">
          <mxGeometry x="354" y="230" width="120" height="60" as="geometry" />
        </mxCell>
        <mxCell id="Lf05gTn_u_sPebguCA0k-4" value="WelcomeMessage" style="whiteSpace=wrap;html=1;rounded=0;" vertex="1" parent="1">
          <mxGeometry x="414" y="320" width="120" height="60" as="geometry" />
        </mxCell>
        <mxCell id="Lf05gTn_u_sPebguCA0k-9" value="" style="edgeStyle=orthogonalEdgeStyle;rounded=0;orthogonalLoop=1;jettySize=auto;html=1;" edge="1" parent="1" source="Lf05gTn_u_sPebguCA0k-6" target="Lf05gTn_u_sPebguCA0k-8">
          <mxGeometry relative="1" as="geometry" />
        </mxCell>
        <mxCell id="Lf05gTn_u_sPebguCA0k-6" value="WorldCreator" style="whiteSpace=wrap;html=1;rounded=0;" vertex="1" parent="1">
          <mxGeometry x="270" y="320" width="120" height="60" as="geometry" />
        </mxCell>
        <mxCell id="Lf05gTn_u_sPebguCA0k-8" value="Rooms" style="whiteSpace=wrap;html=1;rounded=0;" vertex="1" parent="1">
          <mxGeometry x="270" y="420" width="120" height="60" as="geometry" />
        </mxCell>
      </root>
    </mxGraphModel>
  </diagram>
</mxfile>
